#!OML:ASF H:\Terrain\Walking\May29\JustinRory\Justin.ASF
:FULLY-SPECIFIED
:DEGREES
1129
root 12.3274 17.1166 -7.2431 -185.758 -211.006 175.02
lowerback 10.9587 -2.63715 -0.724694
upperback 1.0838 -3.41246 3.00814
thorax -4.77702 -1.63724 4.06133
lowerneck -12.4407 -9.25994 -12.1293
upperneck 14.6512 -11.7794 8.55207
head 7.8001 -5.5986 3.44484
rclavicle 2.25993e-014 1.98785e-015
rhumerus -33.9493 -23.2576 -49.8866
rradius 52.5425
rwrist -37.9396
rhand -18.9766 15.0343
rfingers 7.12502
rthumb 7.32776 -14.8189
lclavicle 2.25993e-014 1.98785e-015
lhumerus -33.567 22.6891 51.4979
lradius 54.829
lwrist 15.4226
lhand 1.55333 44.8241
lfingers 7.12502
lthumb 27.0773 72.9025
rfemur -22.2825 -3.40089 18.5217
rtibia 35.973
rfoot -8.45414 -5.73634
rtoes 8.49746
lfemur -5.2891 -2.82037 -7.39073
ltibia 40.895
lfoot -22.3644 -3.36361
ltoes -30.3807
1130
root 12.3615 17.1057 -7.30549 -185.368 -210.805 175.658
lowerback 10.8818 -2.64922 -1.28391
upperback 1.00636 -3.50883 2.81003
thorax -4.78712 -1.67594 4.1802
lowerneck -12.2132 -9.0339 -11.9796
upperneck 14.5904 -11.5383 8.65284
head 7.711 -5.47473 3.49769
rclavicle -2.41275e-014 3.45885e-014
rhumerus -34.1627 -22.2202 -50.2306
rradius 55.5183
rwrist -38.301
rhand -18.7884 14.3626
rfingers 7.12502
rthumb 7.5094 -15.4841
lclavicle -2.41275e-014 3.45885e-014
lhumerus -34.0356 21.3074 52.0329
lradius 58.9236
lwrist 16.6799
lhand 1.40185 46.1985
lfingers 7.12502
lthumb 26.9324 74.2993
rfemur -22.6863 -3.73642 17.7848
rtibia 36.3074
rfoot -8.43555 -5.23441
rtoes 7.65728
lfemur -4.95505 -3.38718 -7.91166
ltibia 40.2656
lfoot -22.5886 -5.38262
ltoes -31.252
1131
root 12.39 17.0801 -7.36824 -185.35 -210.528 175.756
lowerback 10.9229 -2.72724 -1.48247
upperback 1.06935 -3.63737 2.8108
thorax -4.72122 -1.73793 4.31076
lowerneck -12.705 -8.90989 -11.9789
upperneck 14.9393 -11.3486 8.72516
head 7.89583 -5.36285 3.52765
rclavicle -5.14231e-014 -3.77691e-015
rhumerus -34.0582 -20.981 -50.7366
rradius 58.7291
rwrist -38.4557
rhand -17.6484 14.3972
rfingers 7.12502
rthumb 8.6096 -15.4072
lclavicle -5.14231e-014 -3.77691e-015
lhumerus -34.4756 19.8581 52.738
lradius 63.394
lwrist 18.0027
lhand 1.10875 47.6354
lfingers 7.12502
lthumb 26.6519 75.7792
rfemur -23.0191 -3.93384 17.5948
rtibia 36.6404
rfoot -8.51664 -4.94379
rtoes 6.43891
lfemur -4.62286 -3.83134 -7.94594
ltibia 39.6706
lfoot -22.9911 -7.13397
ltoes -31.2452
1132
root 12.4166 17.0529 -7.43489 -185.355 -210.11 176.042
lowerback 11.1235 -2.7789 -1.85578
upperback 1.25183 -3.75625 2.74804
thorax -4.6114 -1.79488 4.47674
lowerneck -13.7682 -8.70943 -11.8238
upperneck 15.6804 -11.0281 8.69598
head 8.28294 -5.17068 3.49893
rclavicle -7.60351e-014 2.46493e-014
rhumerus -33.905 -19.7178 -51.5196
rradius 62.3064
rwrist -38.6087
rhand -15.0173 14.8333
rfingers 7.12502
rthumb 11.148 -14.8505
lclavicle -7.60351e-014 2.46493e-014
lhumerus -34.7771 18.4964 53.39
lradius 67.9437
lwrist 19.311
lhand 1.42849 47.3367
lfingers 7.12502
lthumb 26.9579 75.4336
rfemur -23.3331 -3.90956 17.1483
rtibia 36.9968
rfoot -8.58792 -4.52083
rtoes 7.80172
lfemur -4.1378 -4.14964 -8.26694
ltibia 39.0532
lfoot -23.752 -8.1499
ltoes -31.601
1133
root 12.4467 17.0281 -7.5022 -185.264 -209.513 176.517
lowerback 11.248 -2.6226 -2.38872
upperback 1.46818 -3.61973 2.66586
thorax -4.43729 -1.72597 4.67064
lowerneck -14.215 -8.42217 -11.7707
upperneck 15.7722 -10.6418 8.91977
head 8.36038 -4.95161 3.60676
rclavicle -4.42793e-014 1.43125e-014
rhumerus -34.1704 -18.5467 -52.1047
rradius 66.4975
rwrist -39.2228
rhand -11.8052 15.0557
rfingers 7.12502
rthumb 14.2447 -14.4358
lclavicle -4.42793e-014 1.43125e-014
lhumerus -34.9901 17.0168 54.3628
lradius 72.8025
lwrist 20.764
lhand 2.70126 45.4167
lfingers 7.12502
lthumb 28.1751 73.3194
rfemur -23.6885 -3.80295 16.5734
rtibia 37.4153
rfoot -8.58865 -4.04786
rtoes 8.77244
lfemur -3.58234 -3.90368 -8.76006
ltibia 38.354
lfoot -24.4378 -9.02655
ltoes -30.81
1134
root 12.4772 16.993 -7.56413 -185.218 -208.925 176.927
lowerback 11.4261 -2.51168 -2.72353
upperback 1.50521 -3.52544 2.49217
thorax -4.49678 -1.67394 4.67341
lowerneck -13.6262 -7.96904 -11.9166
upperneck 15.1621 -10.1282 9.54322
head 8.03896 -4.6823 3.93109
rclavicle -2.46617e-014 1.53064e-014
rhumerus -35.0277 -16.7974 -52.7532
rradius 71.2663
rwrist -40.3558
rhand -8.58738 14.8915
rfingers 7.12502
rthumb 17.3436 -14.3547
lclavicle -2.46617e-014 1.53064e-014
lhumerus -35.6033 14.9526 55.0115
lradius 77.9804
lwrist 22.9291
lhand 4.23213 43.0564
lfingers 7.12502
lthumb 29.6373 70.7088
rfemur -23.9896 -3.73082 16.1448
rtibia 37.8445
rfoot -8.45984 -3.71833
rtoes 6.38854
lfemur -2.96916 -3.33076 -9.18349
ltibia 37.6457
lfoot -24.9599 -9.60764
ltoes -30.568
